<svg xmlns="http://www.w3.org/2000/svg" viewBox="0 0 720 450" role="img" aria-labelledby="title desc">
  <title id="title">Loja virtual demonstrativa</title>
  <desc id="desc">Interface conceitual de e-commerce com catálogo de produtos.</desc>
  <rect width="720" height="450" fill="#0f172a"/>
  <rect x="48" y="42" width="624" height="366" rx="22" fill="#f8fafc"/>
  <rect x="76" y="70" width="93" height="15" rx="7.5" fill="#0f172a"/>
  <rect x="434" y="72" width="74" height="10" rx="5" fill="#94a3b8"/>
  <rect x="525" y="72" width="52" height="10" rx="5" fill="#94a3b8"/>
  <circle cx="624" cy="77" r="15" fill="#2563eb"/>
  <rect x="76" y="116" width="568" height="92" rx="15" fill="#dbeafe"/>
  <rect x="101" y="140" width="205" height="17" rx="6" fill="#1e3a8a"/>
  <rect x="101" y="170" width="146" height="10" rx="5" fill="#60a5fa"/>
  <circle cx="574" cy="162" r="35" fill="#2563eb" opacity=".85"/>
  <g fill="#fff" stroke="#e2e8f0">
    <rect x="76" y="232" width="128" height="145" rx="13"/><rect x="220" y="232" width="128" height="145" rx="13"/>
    <rect x="364" y="232" width="128" height="145" rx="13"/><rect x="508" y="232" width="136" height="145" rx="13"/>
  </g>
  <g fill="#bfdbfe"><rect x="89" y="245" width="102" height="70" rx="9"/><rect x="233" y="245" width="102" height="70" rx="9"/><rect x="377" y="245" width="102" height="70" rx="9"/><rect x="521" y="245" width="110" height="70" rx="9"/></g>
  <g fill="#334155"><rect x="89" y="328" width="73" height="8" rx="4"/><rect x="233" y="328" width="73" height="8" rx="4"/><rect x="377" y="328" width="73" height="8" rx="4"/><rect x="521" y="328" width="73" height="8" rx="4"/></g>
  <g fill="#2563eb"><rect x="89" y="350" width="55" height="9" rx="4.5"/><rect x="233" y="350" width="55" height="9" rx="4.5"/><rect x="377" y="350" width="55" height="9" rx="4.5"/><rect x="521" y="350" width="55" height="9" rx="4.5"/></g>
</svg>
